<?xml version="1.0" encoding="UTF-8"?>
<svg version="1.1" xmlns="http://www.w3.org/2000/svg" width="48" height="48">
<path d="M0 0 C15.84 0 31.68 0 48 0 C48 15.84 48 31.68 48 48 C32.16 48 16.32 48 0 48 C0 32.16 0 16.32 0 0 Z " fill="#D6E6F8" transform="translate(0,0)"/>
<path d="M0 0 C4.29 0 8.58 0 13 0 C13.144375 1.134375 13.28875 2.26875 13.4375 3.4375 C13.61171478 6.80777201 13.61171478 6.80777201 15 8 C15.40274709 11.24245539 15.15912581 13.94091579 14 17 C10.23380091 20.54756207 6.13624988 22.86920919 0.9375 23.1875 C-3.2595035 21.49083901 -7.12594307 19.33304317 -11 17 C-11 16.01 -11 15.02 -11 14 C-10.01 13.67 -9.02 13.34 -8 13 C-9.32 12.01 -10.64 11.02 -12 10 C-10.77974937 6.3392481 -9.873509 6.07660559 -6.5625 4.3125 C-5.75941406 3.87550781 -4.95632812 3.43851563 -4.12890625 2.98828125 C-2 2 -2 2 0 2 C0 1.34 0 0.68 0 0 Z " fill="#15E7AB" transform="translate(22,13)"/>
<path d="M0 0 C0.33 0.99 0.66 1.98 1 3 C2.27875 2.979375 3.5575 2.95875 4.875 2.9375 C8.75 2.875 8.75 2.875 11 4 C11 8.62 11 13.24 11 18 C10.34 17.67 9.68 17.34 9 17 C7.5534758 16.84932786 6.1012066 16.75138964 4.6484375 16.68359375 C3.79765625 16.64169922 2.946875 16.59980469 2.0703125 16.55664062 C1.18085937 16.51732422 0.29140625 16.47800781 -0.625 16.4375 C-1.97078125 16.37272461 -1.97078125 16.37272461 -3.34375 16.30664062 C-5.56234283 16.20043139 -7.7810488 16.09838806 -10 16 C-10 15.01 -10 14.02 -10 13 C-9.44570313 12.81566406 -8.89140625 12.63132812 -8.3203125 12.44140625 C-3.71853611 10.65294367 -3.71853611 10.65294367 -1.0234375 6.73046875 C-0.54871865 4.48086824 -0.19572068 2.28993199 0 0 Z " fill="#A8D2EF" transform="translate(37,21)"/>
<path d="M0 0 C4.29 0 8.58 0 13 0 C13.5745952 3.73486879 14 7.21293268 14 11 C10.00680626 14.44077563 5.6177752 16.83264395 0.375 17.375 C-0.40875 17.25125 -1.1925 17.1275 -2 17 C-2.66 15.68 -3.32 14.36 -4 13 C-0.7 13 2.6 13 6 13 C6 10.03 6 7.06 6 4 C4.02 4 2.04 4 0 4 C0 2.68 0 1.36 0 0 Z " fill="#0F83F4" transform="translate(22,13)"/>
<path d="M0 0 C1 3 1 3 0.5625 5.4375 C-2.13448806 9.86056042 -6.63290431 11.21739344 -11.3984375 12.79296875 C-14.96666098 13.07692647 -16.75990569 11.86463399 -19.8125 10.0625 C-20.78832031 9.49660156 -21.76414062 8.93070313 -22.76953125 8.34765625 C-23.50558594 7.90292969 -24.24164063 7.45820313 -25 7 C-25 6.01 -25 5.02 -25 4 C-22.75 3.3125 -22.75 3.3125 -20 3 C-18.66150329 3.99307821 -17.32848691 4.99357052 -16 6 C-10.33179853 7.2146146 -6.58296694 4.24755416 -1.9765625 1.3125 C-1.32429688 0.879375 -0.67203125 0.44625 0 0 Z " fill="#1BC1F1" transform="translate(36,23)"/>
<path d="M0 0 C0 2.97 0 5.94 0 9 C-0.99 9.33 -1.98 9.66 -3 10 C-6.1875 8.0625 -6.1875 8.0625 -9 6 C-8 3 -8 3 -5.0625 1.3125 C-2 0 -2 0 0 0 Z " fill="#10CBA8" transform="translate(19,17)"/>
<path d="M0 0 C1.65 0.99 3.3 1.98 5 3 C3.68 3.33 2.36 3.66 1 4 C1 4.99 1 5.98 1 7 C1.886875 7.2475 2.77375 7.495 3.6875 7.75 C7.10427135 9.03934768 9.2797748 10.59980129 12 13 C9.5425442 13.89261848 8.40098785 14.15888198 5.9296875 13.1796875 C2.74464563 11.15724646 0.41932739 9.66124704 -1.625 6.4375 C-2.06794962 3.55832747 -1.59467894 2.3920184 0 0 Z " fill="#C2E8FA" transform="translate(10,23)"/>
<path d="M0 0 C1 3 1 3 0.4375 5.5 C-1.48460277 8.84278743 -3.42775677 9.68774738 -7 11 C-7.99 10.67 -8.98 10.34 -10 10 C-9.32942834 7.06624899 -8.5040235 5.38058917 -6.0859375 3.5546875 C-4.08267818 2.3159229 -2.06666551 1.12945673 0 0 Z " fill="#36CCE0" transform="translate(36,23)"/>
<path d="M0 0 C0.99 0.99 1.98 1.98 3 3 C-1.18586481 6.18923033 -3.70558305 7.50423019 -9 7 C-9.66 5.68 -10.32 4.36 -11 3 C-7.37 3 -3.74 3 0 3 C0 2.01 0 1.02 0 0 Z " fill="#0961E3" transform="translate(29,23)"/>
<path d="M0 0 C0 2.31 0 4.62 0 7 C-2.64 7 -5.28 7 -8 7 C-7.875 5.1875 -7.875 5.1875 -7 3 C-1.85714286 0 -1.85714286 0 0 0 Z " fill="#06E4A2" transform="translate(28,19)"/>
<path d="M0 0 C0.33 0 0.66 0 1 0 C1 1.65 1 3.3 1 5 C2.65 5 4.3 5 6 5 C6 4.34 6 3.68 6 3 C6.99 3.33 7.98 3.66 9 4 C8 7 8 7 5.9375 8.1875 C5.298125 8.455625 4.65875 8.72375 4 9 C3.34 8.34 2.68 7.68 2 7 C1.34 7.66 0.68 8.32 0 9 C0 6.03 0 3.06 0 0 Z " fill="#10A0D3" transform="translate(28,17)"/>
<path d="M0 0 C0.89203125 0.47308594 1.7840625 0.94617188 2.703125 1.43359375 C3.37859375 1.80613281 4.0540625 2.17867187 4.75 2.5625 C2.2832355 3.44586837 1.11140628 3.6937406 -1.390625 2.78515625 C-2.08671875 2.40230469 -2.7828125 2.01945312 -3.5 1.625 C-4.55960938 1.05458984 -4.55960938 1.05458984 -5.640625 0.47265625 C-6.17171875 0.17230469 -6.7028125 -0.12804687 -7.25 -0.4375 C-7.25 0.2225 -7.25 0.8825 -7.25 1.5625 C-7.91 1.5625 -8.57 1.5625 -9.25 1.5625 C-9.25 0.5725 -9.25 -0.4175 -9.25 -1.4375 C-5.41753831 -2.93287641 -3.51860793 -1.89819638 0 0 Z " fill="#47CEF2" transform="translate(20.25,28.4375)"/>
<path d="M0 0 C0.66 1.32 1.32 2.64 2 4 C0.3125 5.5625 0.3125 5.5625 -2 7 C-4.75 6.6875 -4.75 6.6875 -7 6 C-4.94766315 3.7522025 -3.99332739 2.9977758 -1 2 C-0.67 1.34 -0.34 0.68 0 0 Z " fill="#7EE0EB" transform="translate(36,28)"/>
<path d="M0 0 C1.65 0 3.3 0 5 0 C5 1.65 5 3.3 5 5 C3.35 5 1.7 5 0 5 C0 3.35 0 1.7 0 0 Z " fill="#0453F4" transform="translate(29,17)"/>
<path d="M0 0 C3.63 0 7.26 0 11 0 C11 0.99 11 1.98 11 3 C9.54077307 2.88590407 8.08259402 2.75834456 6.625 2.625 C5.40683594 2.52058594 5.40683594 2.52058594 4.1640625 2.4140625 C2 2 2 2 0 0 Z " fill="#C2DBF4" transform="translate(35,37)"/>
<path d="M0 0 C1.32 0 2.64 0 4 0 C3.67 1.32 3.34 2.64 3 4 C1.02 4.33 -0.96 4.66 -3 5 C-2.67 4.01 -2.34 3.02 -2 2 C-1.34 2 -0.68 2 0 2 C0 1.34 0 0.68 0 0 Z " fill="#26F7C8" transform="translate(32,27)"/>
<path d="M0 0 C0 0.66 0 1.32 0 2 C1.32 2.33 2.64 2.66 4 3 C1.69 3.66 -0.62 4.32 -3 5 C-3.33 3.68 -3.66 2.36 -4 1 C-2 0 -2 0 0 0 Z " fill="#25E9AF" transform="translate(22,15)"/>
</svg>
